<svg xmlns="http://www.w3.org/2000/svg" viewBox="0 0 39.55 39.55"><defs><style>.cls-1{fill:#1b1930;}</style></defs><g id="Layer_2" data-name="Layer 2"><g id="Layer_1-2" data-name="Layer 1"><path className="cls-1" d="M19.77,3A16.78,16.78,0,1,1,3,19.77,16.79,16.79,0,0,1,19.77,3m0-3A19.78,19.78,0,1,0,39.55,19.77,19.77,19.77,0,0,0,19.77,0Z"/><path className="cls-1" d="M25.67,14.3c0,4.44-5,4-5,7.33v.94H17.4V21.5c0-4.72,4.58-4.33,4.58-6.92,0-1.22-.88-1.93-2.32-1.93a4.54,4.54,0,0,0-3.5,1.82l-2.29-1.8A7.64,7.64,0,0,1,20,9.83C23.74,9.83,25.67,12,25.67,14.3ZM21.35,27.48a2.25,2.25,0,0,1-2.27,2.23,2.23,2.23,0,1,1,2.27-2.23Z"/></g></g></svg>